<svg id="Layer_1" xmlns="http://www.w3.org/2000/svg" viewBox="0 0 1559.1 1559.1"><style>.st0{fill:#ffce00}.st1{fill:#f49500}.st2{fill:#df4829}.st3{fill:#d8328a}.st4{fill:#a24794}.st5{fill:#5f4696}.st6{fill:#4077bb}.st7{fill:#46bedc}.st8{fill:#61bb94}.st9{fill:#59b031}.st10{fill:#fff}</style><path class="st0" d="M373.8 823.5h29.3v8.5h-29.3z"/><path class="st1" d="M403.2 823.5h29.3v8.5h-29.3z"/><path class="st2" d="M432.5 823.5h29.3v8.5h-29.3z"/><path class="st3" d="M461.9 823.5h29.3v8.5h-29.3z"/><path class="st4" d="M491.2 823.5h29.3v8.5h-29.3z"/><path class="st5" d="M520.5 823.5h29.3v8.5h-29.3z"/><path class="st6" d="M549.9 823.5h29.3v8.5h-29.3z"/><path class="st7" d="M579.2 823.5h29.3v8.5h-29.3z"/><path class="st8" d="M608.5 823.5h29.3v8.5h-29.3z"/><path class="st9" d="M637.9 823.5h29.3v8.5h-29.3z"/><path class="st10" d="M1143.6 738.2c0-10.6.2-21.3-26-21.3-13 0-27.5 2.5-28.2 17.9h19.4c.2-2.4 1.4-5.6 7.9-5.6 3.3 0 6.9 1.4 6.9 5s-2.9 4.4-5.7 4.9c-10.7 2-31 1.4-31 18.7 0 11.4 8.8 16.5 19.3 16.5 6.9 0 13.2-1.4 17.6-6.5h.2c-.1 1.4.2 3.7.7 5.1h21.3c-2.3-3.5-2.5-8.1-2.5-12.1v-22.6h.1zm-20 15.3c-.4 5.6-4 8.5-8.8 8.5-3.8 0-6.4-2.5-6.4-5 0-3.7 2.4-4.9 6.9-6 3-.6 5.7-1.3 8.3-2.6v5.1zm-95.8 19.4h54.6v-15.1h-27.3l25-23.6v-16h-50v15.1h23.2l-25.6 23.5v16.1h.1zm-8-75.3h-21v14.6h21v-14.6zm-21 75.3h21v-54.6h-21v54.6zm-11.6-54.7h-21V747c0 8.8-4.8 10.6-8.3 10.6-6.1 0-6.9-4.4-6.9-10.7v-28.7h-20.7v37.5c0 12.5 8.9 18.6 18.7 18.6 8.3 0 13.9-2.9 17.9-8.3h.1v6.9h20.2v-54.7zm-89.8 54.7h21v-75.2h-21v75.2zm-9.2-22.6c0-21.3-9.4-33.3-31.1-33.3-17.3 0-28.8 12.9-28.8 28.8 0 18.2 13.1 28.6 30.6 28.6 12.5 0 23.9-5.5 28.1-17.4h-19.5c-1.7 2.7-5.2 3.9-8.7 3.9-6.5 0-10.1-4.4-10.6-10.6h40zm-40-10.9c1.1-6 4.6-9.2 10.8-9.2 5.4 0 9.2 4 9.2 9.2h-20zm-85.9 33.5h21v-28.8c0-8.7 4.8-10.6 8.2-10.6 6.2 0 6.9 4.5 6.9 10.8v28.6h20.8v-37.5c0-12.5-8.9-18.5-18.7-18.5-8.3 0-13.9 2.7-17.9 8.2h-.2v-6.9h-20.1v54.7zm-11.9-75.3h-20.8v14.6h20.8v-14.6zm-20.9 75.3h20.8v-54.6h-20.8v54.6zm-62.8 0h54.5v-15.1h-27.1l25-23.6v-16H669v15.1h23.3l-25.6 23.5v16.1zm-7.3-34.7c0-10.6.2-21.3-25.8-21.3-13 0-27.5 2.5-28.2 17.9h19.4c.1-2.4 1.4-5.6 7.9-5.6 3.3 0 6.8 1.4 6.8 5s-2.7 4.4-5.7 4.9c-10.6 2-30.8 1.4-30.8 18.7 0 11.4 8.8 16.5 19.3 16.5 6.8 0 13.2-1.4 17.6-6.5h.2c-.1 1.4.1 3.7.7 5.1H662c-2.4-3.5-2.6-8.1-2.6-12.1v-22.6zm-20 15.3c-.2 5.6-4 8.5-8.8 8.5-3.7 0-6.4-2.5-6.4-5 0-3.7 2.4-4.9 7-6 2.9-.6 5.7-1.3 8.2-2.6v5.1zm-43.9-35.3h-20.8v6.7h-.2c-2.4-5.6-8.2-8-14.3-8-15.6 0-23.7 11.8-23.7 26.1 0 14.6 7.3 26.7 23.3 26.7 6.3 0 11.3-2.7 14.6-7.6h.2v5.1c0 4.4-1.5 12.5-8.2 12.5-2.6 0-4.9-2.1-6.2-3.9-.4-.7-1-1.4-1.1-2h-20.6c1.8 14.8 15.5 18.3 28.5 18.3 25.6 0 28.5-15.4 28.5-26.2v-47.7zm-38.2 24.7c0-5.7 2.9-11 8.8-11 6.1 0 9 4.8 9 10.8 0 6.1-.8 13.5-8.6 13.5-7.3 0-9.2-7-9.2-13.3zm-28.6-4.7c0-10.6.2-21.3-26-21.3-13 0-27.5 2.5-28.1 17.9H494c.1-2.4 1.3-5.6 7.7-5.6 3.3 0 6.9 1.4 6.9 5s-2.9 4.4-5.7 4.9c-10.7 2-31 1.4-31 18.7 0 11.4 8.8 16.5 19.3 16.5 6.9 0 13.3-1.4 17.6-6.5h.2c-.1 1.4.2 3.7.7 5.1h21.4c-2.4-3.5-2.6-8.1-2.6-12.1v-22.6h.2zm-20 15.3c-.4 5.6-4 8.5-8.8 8.5-3.8 0-6.4-2.5-6.4-5 0-3.7 2.4-4.9 7-6 2.9-.6 5.7-1.3 8.2-2.6v5.1zm-134.9 19.4h20.8v-29.6c0-5.7 1.8-9.8 7-9.8 6.3 0 6.9 4.6 6.9 9.8v29.6h20.8v-29.6c0-5.7 1.8-9.8 7-9.8 6.3 0 6.9 4.6 6.9 9.8v29.6H464v-37.5c0-8.8-4.6-18.5-18.7-18.5-13.6 0-17.9 7.9-18.7 8.5-2.6-5.5-8.8-8.5-14.8-8.5-7.6 0-13.7 2.3-17.9 8.6h.1v-7.3h-20.1v54.7h-.1zm324.1 62.3v-.2c0-8.3 7.1-12.9 17.4-12.9 5.5 0 9.3.7 13.2 1.7v-1.7c0-8-4.9-12.1-13.1-12.1-4.4 0-8 1.1-11.3 2.6-.3.2-.6.2-.9.2-.9 0-1.8-.9-1.8-1.8s.7-1.6 1.1-1.7c4-1.8 8-3 13.1-3 5.4 0 9.7 1.5 12.5 4.4 2.6 2.6 4 6.3 4 11.2V845c0 1.2-.8 1.9-1.9 1.9-1.1 0-1.9-.8-1.9-1.9v-5c-2.7 3.8-7.6 7.6-15.2 7.6-7.2 0-15.2-4.2-15.2-12.4zm30.6-3.4v-4.5c-3.3-.9-7.8-1.8-13.5-1.8-8.4 0-13.1 3.7-13.1 9.3v.2c0 5.8 5.5 9.1 11.5 9.1 8.2-.1 15.1-5 15.1-12.3zm48.1 13.2c0 1.2-.8 1.9-1.9 1.9-1.1 0-1.9-.8-1.9-1.9v-7.2c-3.4 5.2-8.5 9.8-16.4 9.8-9.6 0-19.3-7.7-19.3-20.6v-.2c0-12.9 9.7-20.8 19.3-20.8 7.9 0 13.1 4.5 16.4 9.5v-24.1c0-1.2.8-1.9 1.9-1.9 1.1 0 1.9.8 1.9 1.9V845zm-35.4-18.3v.2c0 10.4 7.2 17.1 15.6 17.1 8.3 0 16.2-6.9 16.2-17.1v-.2c0-10.2-7.9-17.1-16.2-17.1-8.7.1-15.6 6.4-15.6 17.1zm43.6-18.1c0-1.1.8-1.9 1.9-1.9 1.1 0 1.9.8 1.9 1.9v5.5c2.6-4.1 6.2-8 13.2-8 6.9 0 11.2 4 13.4 8.6 2.6-4.4 6.9-8.6 14.3-8.6 9.4 0 15.3 6.6 15.3 16.6V845c0 1.2-.8 1.9-1.9 1.9-1.1 0-1.9-.8-1.9-1.9v-22c0-8.6-4.4-13.5-11.8-13.5-6.7 0-12.5 5.1-12.5 14V845c0 1.2-.8 1.9-1.9 1.9-1.1 0-1.9-.8-1.9-1.9v-22.2c0-8.3-4.5-13.3-11.6-13.3s-12.7 6.2-12.7 14.2V845c0 1.2-.8 1.9-1.9 1.9s-1.9-.8-1.9-1.9v-36.4zm67.9-15.3c0-1.3 1-2.3 2.3-2.3 1.3 0 2.4 1 2.4 2.3v1.3c0 1.3-1.1 2.3-2.4 2.3-1.3 0-2.3-1-2.3-2.3v-1.3zm.5 15.3c0-1.1.8-1.9 1.9-1.9s1.9.8 1.9 1.9V845c0 1.2-.8 1.9-1.9 1.9s-1.9-.8-1.9-1.9v-36.4zm12.6 0c0-1.1.8-1.9 1.9-1.9s1.9.8 1.9 1.9v5.8c2.6-4.7 7.1-8.3 14.3-8.3 10 0 15.9 6.9 15.9 16.4V845c0 1.2-.8 1.9-1.9 1.9-1.1 0-1.9-.8-1.9-1.9v-22c0-8.2-4.6-13.5-12.6-13.5-7.8 0-13.8 5.9-13.8 14.2V845c0 1.2-.8 1.9-1.9 1.9-1.1 0-1.9-.8-1.9-1.9v-36.4zm41.6-15.3c0-1.3 1-2.3 2.3-2.3 1.3 0 2.4 1 2.4 2.3v1.3c0 1.3-1.1 2.3-2.4 2.3-1.3 0-2.3-1-2.3-2.3v-1.3zm.4 15.3c0-1.1.8-1.9 1.9-1.9s1.9.8 1.9 1.9V845c0 1.2-.8 1.9-1.9 1.9s-1.9-.8-1.9-1.9v-36.4zm10.1 33.7c-.3-.2-.7-.9-.7-1.5 0-1 .9-1.9 1.9-1.9.5 0 .9.2 1.2.4 4.1 3 8.5 4.5 13.2 4.5 5.4 0 9.6-3 9.6-7.6v-.2c0-4.7-5-6.4-10.5-7.9-6.5-1.9-13.6-3.8-13.6-10.9v-.2c0-6.4 5.4-11 13.1-11 4.3 0 9 1.4 12.8 3.6.5.3 1 .9 1 1.7 0 1-.9 1.9-1.9 1.9-.5 0-.9-.2-1.1-.3-3.4-2-7.2-3.3-11.1-3.3-5.5 0-9 3-9 6.9v.2c0 4.4 5.4 6.1 11.1 7.7 6.4 1.8 13.1 4.1 13.1 11.1v.2c0 7.1-6.1 11.6-13.7 11.6-5.4.2-11.4-1.9-15.4-5zm36.4-5.8v-26H950c-.9 0-1.8-.9-1.8-1.8s.9-1.7 1.8-1.7h4.3v-11.1c0-1.1.8-1.9 1.9-1.9 1.1 0 1.9.9 1.9 1.9V807h12.5c.9 0 1.8.9 1.8 1.8s-.9 1.7-1.8 1.7h-12.5v25.6c0 5.7 3.3 7.7 7.9 7.7 2.7 0 4-.8 4.5-.8.9 0 1.7.8 1.7 1.7 0 .8-.5 1.3-1.2 1.6-1.6.5-3.3 1-5.6 1-6.2.1-11.1-3.3-11.1-10.8zm22.8-27.9c0-1.1.8-1.9 1.9-1.9s1.9.8 1.9 1.9v9.7c3.4-7.7 10.4-11.9 16-11.9 1.2 0 2 .9 2 2.1 0 1.1-.8 2-2 2.1-8.4.8-16 7.1-16 19.9V845c0 1.1-.8 1.9-1.9 1.9-1.1 0-1.9-.8-1.9-1.9v-36.4zm19.7 26.6v-.2c0-8.3 7.1-12.9 17.4-12.9 5.5 0 9.3.7 13.2 1.7v-1.7c0-8-4.9-12.1-13.1-12.1-4.4 0-8 1.1-11.3 2.6-.3.2-.6.2-.9.2-.9 0-1.8-.9-1.8-1.8s.7-1.6 1.1-1.7c4-1.8 8-3 13.1-3 5.4 0 9.7 1.5 12.5 4.4 2.6 2.6 4 6.3 4 11.2V845c0 1.2-.8 1.9-1.9 1.9s-1.9-.8-1.9-1.9v-5c-2.7 3.8-7.6 7.6-15.2 7.6-7.3 0-15.2-4.2-15.2-12.4zm30.6-3.4v-4.5c-3.3-.9-7.8-1.8-13.5-1.8-8.4 0-13.1 3.7-13.1 9.3v.2c0 5.8 5.5 9.1 11.5 9.1 8.1-.1 15.1-5 15.1-12.3zm12.8 4.7v-26h-4.3c-.9 0-1.8-.9-1.8-1.8s.9-1.7 1.8-1.7h4.3v-11.1c0-1.1.8-1.9 1.9-1.9 1.1 0 1.9.9 1.9 1.9V807h12.5c.9 0 1.8.9 1.8 1.8s-.9 1.7-1.8 1.7H1044v25.6c0 5.7 3.3 7.7 7.9 7.7 2.7 0 4-.8 4.5-.8.9 0 1.7.8 1.7 1.7 0 .8-.5 1.3-1.2 1.6-1.6.5-3.3 1-5.6 1-6.1.1-11.1-3.3-11.1-10.8zm22.9-43.2c0-1.3 1-2.3 2.3-2.3 1.3 0 2.4 1 2.4 2.3v1.3c0 1.3-1.1 2.3-2.4 2.3-1.3 0-2.3-1-2.3-2.3v-1.3zm.5 15.3c0-1.1.8-1.9 1.9-1.9s1.9.8 1.9 1.9V845c0 1.2-.8 1.9-1.9 1.9s-1.9-.8-1.9-1.9v-36.4zm28.1 38.6h-.2c-1.1 0-1.7-.6-2.2-1.6l-16-35.8c-.2-.4-.3-.8-.3-1.2 0-1.1.9-1.9 2-1.9s1.6.7 2 1.6l14.5 34.2 14.7-34.3c.3-.8.9-1.4 1.9-1.4 1.1 0 1.9.9 1.9 1.9 0 .4-.1.6-.2 1l-16 36c-.4.9-1 1.5-2.1 1.5zm18.5-20.2v-.2c0-11.1 8.6-20.8 20.5-20.8 11.8 0 20.3 9.5 20.3 20.6v.2c0 11.1-8.6 20.8-20.5 20.8-11.7 0-20.3-9.5-20.3-20.6zm36.7 0v-.2c0-9.6-7.2-17.2-16.4-17.2-9.4 0-16.2 7.7-16.2 17.1v.2c0 9.6 7.2 17.2 16.4 17.2 9.4-.1 16.2-7.8 16.2-17.1z"/></svg>