<svg xmlns="http://www.w3.org/2000/svg" viewBox="0 0 59 59"><path d="M30.198 21.113L6.5 30s-1.417 9 10 20h28c11.417-11 10-20 10-20l-23.698-8.887a.86.86 0 0 0-.604 0z" fill="#e6e7e8"/><path d="M35.5 13h-10V2.198C25.5.984 26.484 0 27.698 0h5.604C34.516 0 35.5.984 35.5 2.198V13z" fill="#285680"/><path d="M30.198 21.113a.86.86 0 0 1 .604 0L49.5 28.125V14.876c0-1.036-.84-1.876-1.876-1.876H13.376c-1.036 0-1.876.84-1.876 1.876v13.249l18.698-7.012z" fill="#95a5a5"/><path d="M43.5 18h-2a1 1 0 1 1 0-2h2a1 1 0 1 1 0 2zm-5 0h-2a1 1 0 1 1 0-2h2a1 1 0 1 1 0 2zm-5 0h-2a1 1 0 1 1 0-2h2a1 1 0 1 1 0 2zm-5 0h-2a1 1 0 1 1 0-2h2a1 1 0 1 1 0 2zm-5 0h-2a1 1 0 1 1 0-2h2a1 1 0 1 1 0 2zm-5 0h-2a1 1 0 1 1 0-2h2a1 1 0 1 1 0 2z" fill="#fff"/><path d="M30.198 21.113L6.5 30s-1.417 9 10 20h14V21.058a.872.872 0 0 0-.302.055z" fill="#bdc3c7"/><path fill="none" stroke="#fff" stroke-width="2" stroke-linecap="round" stroke-miterlimit="10" d="M11.5 33l19-7 18 7"/><path d="M38.5 50h-16l1.856-12.992A1.175 1.175 0 0 1 25.518 36h9.963c.584 0 1.08.43 1.163 1.008L38.5 50z" fill="#4482c3"/><path d="M33.302 0H30.5v13h5V2.198A2.198 2.198 0 0 0 33.302 0z" fill="#457ba3"/><path d="M30.5 36h-4.982c-.584 0-1.08.43-1.163 1.008L22.5 50h8V36z" fill="#35495e"/><g fill="#285680"><path d="M56.5 49h-54a1 1 0 1 0 0 2h54a1 1 0 1 0 0-2zM45.5 53h-29a1 1 0 1 0 0 2h29a1 1 0 1 0 0-2zM37.5 57h-14a1 1 0 1 0 0 2h14a1 1 0 1 0 0-2z"/></g></svg>